<svg width="146" height="41" viewBox="0 0 146 41" fill="none" xmlns="http://www.w3.org/2000/svg">
<g filter="url(#filter0_f_46_4023)">
<path d="M25.5 33.5L29.5 27H34.5L39.5 17.5L34 8H19L8.5 26L13 33.5L24 14H29L33 20.5H27.5L16.5 40H9L1 25.5L15 1H37.5L47 17.5L37.5 33.5H25.5Z" fill="url(#paint0_linear_46_4023)"/>
</g>
<path d="M66.4322 15.48C66.4322 16.2933 66.2455 17.04 65.8722 17.72C65.4989 18.3867 64.9255 18.9267 64.1522 19.34C63.3789 19.7533 62.4189 19.96 61.2722 19.96H59.1522V25H55.7322V10.96H61.2722C62.3922 10.96 63.3389 11.1533 64.1122 11.54C64.8855 11.9267 65.4655 12.46 65.8522 13.14C66.2389 13.82 66.4322 14.6 66.4322 15.48ZM61.0122 17.24C61.6655 17.24 62.1522 17.0867 62.4722 16.78C62.7922 16.4733 62.9522 16.04 62.9522 15.48C62.9522 14.92 62.7922 14.4867 62.4722 14.18C62.1522 13.8733 61.6655 13.72 61.0122 13.72H59.1522V17.24H61.0122ZM69.9327 12.68C69.3327 12.68 68.8393 12.5067 68.4527 12.16C68.0793 11.8 67.8927 11.36 67.8927 10.84C67.8927 10.3067 68.0793 9.86667 68.4527 9.52C68.8393 9.16 69.3327 8.98 69.9327 8.98C70.5193 8.98 70.9993 9.16 71.3727 9.52C71.7593 9.86667 71.9527 10.3067 71.9527 10.84C71.9527 11.36 71.7593 11.8 71.3727 12.16C70.9993 12.5067 70.5193 12.68 69.9327 12.68ZM71.6327 13.84V25H68.2127V13.84H71.6327ZM80.9111 13.72C82.2178 13.72 83.2578 14.1467 84.0311 15C84.8178 15.84 85.2111 17 85.2111 18.48V25H81.8111V18.94C81.8111 18.1933 81.6178 17.6133 81.2311 17.2C80.8444 16.7867 80.3244 16.58 79.6711 16.58C79.0178 16.58 78.4978 16.7867 78.1111 17.2C77.7244 17.6133 77.5311 18.1933 77.5311 18.94V25H74.1111V13.84H77.5311V15.32C77.8778 14.8267 78.3444 14.44 78.9311 14.16C79.5178 13.8667 80.1778 13.72 80.9111 13.72ZM91.8277 13.68C92.6143 13.68 93.301 13.84 93.8877 14.16C94.4877 14.48 94.9477 14.9 95.2677 15.42V13.84H98.6877V24.98C98.6877 26.0067 98.481 26.9333 98.0677 27.76C97.6677 28.6 97.0477 29.2667 96.2077 29.76C95.381 30.2533 94.3477 30.5 93.1077 30.5C91.4543 30.5 90.1143 30.1067 89.0877 29.32C88.061 28.5467 87.4743 27.4933 87.3277 26.16H90.7077C90.8143 26.5867 91.0677 26.92 91.4677 27.16C91.8677 27.4133 92.361 27.54 92.9477 27.54C93.6543 27.54 94.2143 27.3333 94.6277 26.92C95.0543 26.52 95.2677 25.8733 95.2677 24.98V23.4C94.9343 23.92 94.4743 24.3467 93.8877 24.68C93.301 25 92.6143 25.16 91.8277 25.16C90.9077 25.16 90.0743 24.9267 89.3277 24.46C88.581 23.98 87.9877 23.3067 87.5477 22.44C87.121 21.56 86.9077 20.5467 86.9077 19.4C86.9077 18.2533 87.121 17.2467 87.5477 16.38C87.9877 15.5133 88.581 14.8467 89.3277 14.38C90.0743 13.9133 90.9077 13.68 91.8277 13.68ZM95.2677 19.42C95.2677 18.5667 95.0277 17.8933 94.5477 17.4C94.081 16.9067 93.5077 16.66 92.8277 16.66C92.1477 16.66 91.5677 16.9067 91.0877 17.4C90.621 17.88 90.3877 18.5467 90.3877 19.4C90.3877 20.2533 90.621 20.9333 91.0877 21.44C91.5677 21.9333 92.1477 22.18 92.8277 22.18C93.5077 22.18 94.081 21.9333 94.5477 21.44C95.0277 20.9467 95.2677 20.2733 95.2677 19.42ZM104.582 15.42C104.915 14.9 105.375 14.48 105.962 14.16C106.549 13.84 107.235 13.68 108.022 13.68C108.942 13.68 109.775 13.9133 110.522 14.38C111.269 14.8467 111.855 15.5133 112.282 16.38C112.722 17.2467 112.942 18.2533 112.942 19.4C112.942 20.5467 112.722 21.56 112.282 22.44C111.855 23.3067 111.269 23.98 110.522 24.46C109.775 24.9267 108.942 25.16 108.022 25.16C107.249 25.16 106.562 25 105.962 24.68C105.375 24.36 104.915 23.9467 104.582 23.44V30.32H101.162V13.84H104.582V15.42ZM109.462 19.4C109.462 18.5467 109.222 17.88 108.742 17.4C108.275 16.9067 107.695 16.66 107.002 16.66C106.322 16.66 105.742 16.9067 105.262 17.4C104.795 17.8933 104.562 18.5667 104.562 19.42C104.562 20.2733 104.795 20.9467 105.262 21.44C105.742 21.9333 106.322 22.18 107.002 22.18C107.682 22.18 108.262 21.9333 108.742 21.44C109.222 20.9333 109.462 20.2533 109.462 19.4ZM119.816 25.16C118.723 25.16 117.736 24.9267 116.856 24.46C115.989 23.9933 115.303 23.3267 114.796 22.46C114.303 21.5933 114.056 20.58 114.056 19.42C114.056 18.2733 114.309 17.2667 114.816 16.4C115.323 15.52 116.016 14.8467 116.896 14.38C117.776 13.9133 118.763 13.68 119.856 13.68C120.949 13.68 121.936 13.9133 122.816 14.38C123.696 14.8467 124.389 15.52 124.896 16.4C125.403 17.2667 125.656 18.2733 125.656 19.42C125.656 20.5667 125.396 21.58 124.876 22.46C124.369 23.3267 123.669 23.9933 122.776 24.46C121.896 24.9267 120.909 25.16 119.816 25.16ZM119.816 22.2C120.469 22.2 121.023 21.96 121.476 21.48C121.943 21 122.176 20.3133 122.176 19.42C122.176 18.5267 121.949 17.84 121.496 17.36C121.056 16.88 120.509 16.64 119.856 16.64C119.189 16.64 118.636 16.88 118.196 17.36C117.756 17.8267 117.536 18.5133 117.536 19.42C117.536 20.3133 117.749 21 118.176 21.48C118.616 21.96 119.163 22.2 119.816 22.2ZM132.01 25.16C131.037 25.16 130.17 24.9933 129.41 24.66C128.65 24.3267 128.05 23.8733 127.61 23.3C127.17 22.7133 126.924 22.06 126.87 21.34H130.25C130.29 21.7267 130.47 22.04 130.79 22.28C131.11 22.52 131.504 22.64 131.97 22.64C132.397 22.64 132.724 22.56 132.95 22.4C133.19 22.2267 133.31 22.0067 133.31 21.74C133.31 21.42 133.144 21.1867 132.81 21.04C132.477 20.88 131.937 20.7067 131.19 20.52C130.39 20.3333 129.724 20.14 129.19 19.94C128.657 19.7267 128.197 19.4 127.81 18.96C127.424 18.5067 127.23 17.9 127.23 17.14C127.23 16.5 127.404 15.92 127.75 15.4C128.11 14.8667 128.63 14.4467 129.31 14.14C130.004 13.8333 130.824 13.68 131.77 13.68C133.17 13.68 134.27 14.0267 135.07 14.72C135.884 15.4133 136.35 16.3333 136.47 17.48H133.31C133.257 17.0933 133.084 16.7867 132.79 16.56C132.51 16.3333 132.137 16.22 131.67 16.22C131.27 16.22 130.964 16.3 130.75 16.46C130.537 16.6067 130.43 16.8133 130.43 17.08C130.43 17.4 130.597 17.64 130.93 17.8C131.277 17.96 131.81 18.12 132.53 18.28C133.357 18.4933 134.03 18.7067 134.55 18.92C135.07 19.12 135.524 19.4533 135.91 19.92C136.31 20.3733 136.517 20.9867 136.53 21.76C136.53 22.4133 136.344 23 135.97 23.52C135.61 24.0267 135.084 24.4267 134.39 24.72C133.71 25.0133 132.917 25.16 132.01 25.16ZM144.843 22.1V25H143.103C141.863 25 140.896 24.7 140.203 24.1C139.509 23.4867 139.163 22.4933 139.163 21.12V16.68H137.803V13.84H139.163V11.12H142.583V13.84H144.823V16.68H142.583V21.16C142.583 21.4933 142.663 21.7333 142.823 21.88C142.983 22.0267 143.249 22.1 143.623 22.1H144.843Z" fill="black"/>
<defs>
<filter id="filter0_f_46_4023" x="0.8" y="0.8" width="46.4" height="39.4" filterUnits="userSpaceOnUse" color-interpolation-filters="sRGB">
<feFlood flood-opacity="0" result="BackgroundImageFix"/>
<feBlend mode="normal" in="SourceGraphic" in2="BackgroundImageFix" result="shape"/>
<feGaussianBlur stdDeviation="0.1" result="effect1_foregroundBlur_46_4023"/>
</filter>
<linearGradient id="paint0_linear_46_4023" x1="4" y1="24.5" x2="42" y2="13.5" gradientUnits="userSpaceOnUse">
<stop stop-color="#4B3D9B"/>
<stop offset="0.605617" stop-color="#8F3387"/>
<stop offset="1" stop-color="#C92974"/>
</linearGradient>
</defs>
</svg>
