<svg width="30" height="30" viewBox="0 0 30 30" fill="none" xmlns="http://www.w3.org/2000/svg">
<path d="M18.425 10.025H20.8417M18.425 14.8583H20.8417M20.8417 19.6917H8.75838M8.75838 10.025V14.8583H13.5917V10.025H8.75838ZM6.34172 24.525H23.2584C23.8993 24.525 24.514 24.2704 24.9672 23.8172C25.4204 23.3639 25.675 22.7493 25.675 22.1083V7.60832C25.675 6.96738 25.4204 6.35269 24.9672 5.89948C24.514 5.44626 23.8993 5.19165 23.2584 5.19165H6.34172C5.70078 5.19165 5.08609 5.44626 4.63287 5.89948C4.17966 6.35269 3.92505 6.96738 3.92505 7.60832V22.1083C3.92505 22.7493 4.17966 23.3639 4.63287 23.8172C5.08609 24.2704 5.70078 24.525 6.34172 24.525Z" stroke="#D4D5D6" stroke-width="2.41667" stroke-linecap="round" stroke-linejoin="round"/>
</svg>
