<svg width="30" height="29" viewBox="0 0 30 29" fill="none" xmlns="http://www.w3.org/2000/svg">
<path d="M19.6333 3.62939H9.96667C8.63388 3.62939 7.55001 4.71327 7.55001 6.04606V22.9627C7.55001 24.2955 8.63388 25.3794 9.96667 25.3794H19.6333C20.9661 25.3794 22.05 24.2955 22.05 22.9627V6.04606C22.05 4.71327 20.9661 3.62939 19.6333 3.62939ZM2.71667 8.46273V20.5461C2.71667 21.8789 3.80055 22.9627 5.13334 22.9627V6.04606C3.80055 6.04606 2.71667 7.12994 2.71667 8.46273ZM24.4667 6.04606V22.9627C25.7995 22.9627 26.8833 21.8789 26.8833 20.5461V8.46273C26.8833 7.12994 25.7995 6.04606 24.4667 6.04606Z" fill="#D4D5D6"/>
</svg>
