<svg width="30" height="30" viewBox="0 0 30 30" fill="none" xmlns="http://www.w3.org/2000/svg">
<path d="M26.7 13.7762V5.61619C26.7 3.81619 25.932 3.09619 24.024 3.09619H19.176C17.268 3.09619 16.5 3.81619 16.5 5.61619V13.7762C16.5 15.5762 17.268 16.2962 19.176 16.2962H24.024C25.932 16.2962 26.7 15.5762 26.7 13.7762Z" fill="#4182F9"/>
<path d="M26.7 24.5762V22.4162C26.7 20.6162 25.932 19.8962 24.024 19.8962H19.176C17.268 19.8962 16.5 20.6162 16.5 22.4162V24.5762C16.5 26.3762 17.268 27.0962 19.176 27.0962H24.024C25.932 27.0962 26.7 26.3762 26.7 24.5762Z" fill="#4182F9"/>
<path d="M12.9001 16.4162V24.5762C12.9001 26.3762 12.1321 27.0962 10.2241 27.0962H5.37607C3.46807 27.0962 2.70007 26.3762 2.70007 24.5762V16.4162C2.70007 14.6162 3.46807 13.8962 5.37607 13.8962H10.2241C12.1321 13.8962 12.9001 14.6162 12.9001 16.4162Z" fill="#4182F9"/>
<path d="M12.9001 5.61619V7.77619C12.9001 9.57619 12.1321 10.2962 10.2241 10.2962H5.37607C3.46807 10.2962 2.70007 9.57619 2.70007 7.77619V5.61619C2.70007 3.81619 3.46807 3.09619 5.37607 3.09619H10.2241C12.1321 3.09619 12.9001 3.81619 12.9001 5.61619Z" fill="#4182F9"/>
</svg>
