<svg width="30" height="30" viewBox="0 0 30 30" fill="none" xmlns="http://www.w3.org/2000/svg">
<path d="M4.1311 26.0045C9.0937 18.998 20.6524 18.6146 25.7311 26.0045M20.3311 9.80454C20.3311 11.2367 19.7622 12.6102 18.7495 13.6229C17.7368 14.6356 16.3633 15.2045 14.9311 15.2045C13.4989 15.2045 12.1254 14.6356 11.1127 13.6229C10.1 12.6102 9.5311 11.2367 9.5311 9.80454C9.5311 8.37237 10.1 6.99886 11.1127 5.98616C12.1254 4.97347 13.4989 4.40454 14.9311 4.40454C16.3633 4.40454 17.7368 4.97347 18.7495 5.98616C19.7622 6.99886 20.3311 8.37237 20.3311 9.80454Z" stroke="#D4D5D6" stroke-width="3.0375" stroke-linecap="round" stroke-linejoin="round"/>
</svg>
