<svg width="30" height="30" viewBox="0 0 30 30" fill="none" xmlns="http://www.w3.org/2000/svg">
<path d="M14.8219 5.17334C15.855 5.17334 16.9147 5.19992 17.9418 5.24342L19.1549 5.30142L20.3162 5.3703L21.4037 5.44401L22.3969 5.52134C23.475 5.60338 24.4895 6.0632 25.2618 6.81982C26.0341 7.57644 26.5147 8.58132 26.6188 9.65746L26.6671 10.171L26.7578 11.2706C26.8424 12.41 26.9052 13.6522 26.9052 14.84C26.9052 16.0278 26.8424 17.27 26.7578 18.4094L26.6671 19.509L26.6188 20.0225C26.5146 21.0989 26.0339 22.1039 25.2613 22.8606C24.4888 23.6172 23.474 24.0769 22.3957 24.1587L21.4049 24.2348L20.3174 24.3097L19.1549 24.3786L17.9418 24.4366C16.9024 24.4816 15.8622 24.505 14.8219 24.5067C13.7815 24.505 12.7413 24.4816 11.7019 24.4366L10.4888 24.3786L9.32757 24.3097L8.24007 24.2348L7.24682 24.1587C6.16876 24.0766 5.15422 23.6168 4.38191 22.8602C3.6096 22.1036 3.12905 21.0987 3.0249 20.0225L2.97657 19.509L2.88594 18.4094C2.79391 17.2218 2.74474 16.0312 2.73853 14.84C2.73853 13.6522 2.80136 12.41 2.88594 11.2706L2.97657 10.171L3.0249 9.65746C3.12901 8.58151 3.60939 7.57678 4.38145 6.82018C5.15352 6.06359 6.16777 5.60365 7.24561 5.52134L8.23765 5.44401L9.32515 5.3703L10.4876 5.30142L11.7007 5.24342C12.7405 5.19839 13.7811 5.17502 14.8219 5.17334ZM14.8219 7.59001C13.825 7.59001 12.7991 7.61659 11.801 7.65767L10.6193 7.71447L9.48465 7.78092L8.4189 7.85342L7.44257 7.92955C6.92926 7.96548 6.44532 8.18224 6.07674 8.54131C5.70816 8.90037 5.47883 9.37848 5.42948 9.89067C5.28811 11.3515 5.15519 13.1701 5.15519 14.84C5.15519 16.5099 5.28811 18.3285 5.42948 19.7893C5.53219 20.843 6.36836 21.6623 7.44257 21.7505L8.4189 21.8254L9.48465 21.8979L10.6193 21.9655L11.801 22.0223C12.7991 22.0634 13.825 22.09 14.8219 22.09C15.8187 22.09 16.8446 22.0634 17.8427 22.0223L19.0244 21.9655L20.1591 21.8991L21.2248 21.8266L22.2011 21.7505C22.7145 21.7145 23.1984 21.4978 23.567 21.1387C23.9356 20.7796 24.1649 20.3015 24.2142 19.7893C24.3556 18.3285 24.4885 16.5099 24.4885 14.84C24.4885 13.1701 24.3556 11.3515 24.2142 9.89067C24.1649 9.37848 23.9356 8.90037 23.567 8.54131C23.1984 8.18224 22.7145 7.96548 22.2011 7.92955L21.2248 7.85463L20.1591 7.78213L19.0244 7.71447L17.8427 7.65767C16.8363 7.61448 15.8292 7.59192 14.8219 7.59001ZM12.4052 11.9098C12.4051 11.7917 12.4339 11.6754 12.489 11.5709C12.5441 11.4665 12.6239 11.3771 12.7215 11.3105C12.819 11.2439 12.9314 11.2022 13.0487 11.1889C13.166 11.1756 13.2849 11.1912 13.3948 11.2343L13.4927 11.2827L18.5677 14.2117C18.6688 14.27 18.7542 14.3518 18.8169 14.4502C18.8796 14.5487 18.9176 14.6608 18.9276 14.777C18.9377 14.8932 18.9196 15.0102 18.8748 15.1179C18.83 15.2257 18.7599 15.321 18.6704 15.3958L18.5677 15.4683L13.4927 18.3985C13.3904 18.4578 13.2752 18.4911 13.1571 18.4956C13.039 18.5001 12.9216 18.4757 12.8151 18.4245C12.7086 18.3733 12.6163 18.2968 12.5461 18.2017C12.4759 18.1066 12.43 17.9958 12.4124 17.879L12.4052 17.7702V11.9098Z" fill="#D4D5D6"/>
</svg>
